<?xml version="1.0" encoding="UTF-8"?>
<svg xmlns="http://www.w3.org/2000/svg" id="Layer_1" viewBox="0 0 27.03 24.9">
  <metadata></metadata>
  <path d="M25.48,1.34C27.19,0,27.38,1.18,26.56,2.14s-14.17,16.49-14.17,16.49c0,0-6.46-5.7-7.2-6.36-2.28-2.03-.35-3.51,1.79-2.16s5.01,3.18,5.01,3.18c0,0,11.24-10.14,13.5-11.94Z" fill="#eeac1f"></path>
  <path d="M13.16,24.88c-3.32.19-6.51-.92-9-3.14C1.68,19.53.21,16.48.02,13.16S.94,6.65,3.16,4.16C5.37,1.68,8.42.21,11.74.02c3.04-.17,6.04.77,8.43,2.66.5.39.58,1.11.19,1.61-.39.5-1.11.58-1.61.19-1.95-1.54-4.39-2.31-6.87-2.17C6.28,2.63,1.99,7.44,2.31,13.03s5.13,9.88,10.72,9.56,9.88-5.13,9.56-10.72c-.05-.8-.19-1.59-.41-2.35-.18-.61.16-1.25.77-1.43.61-.18,1.25.16,1.43.77.28.93.45,1.9.51,2.88.19,3.32-.92,6.51-3.14,9s-5.26,3.95-8.58,4.14Z" fill="#eeac1f"></path>
</svg>
