<?xml version="1.0" encoding="UTF-8"?>
<svg xmlns="http://www.w3.org/2000/svg" xmlns:xlink="http://www.w3.org/1999/xlink" xmlns:xodm="http://www.corel.com/coreldraw/odm/2003" xml:space="preserve" width="600px" height="97px" version="1.1" style="shape-rendering:geometricPrecision; text-rendering:geometricPrecision; image-rendering:optimizeQuality; fill-rule:evenodd; clip-rule:evenodd" viewBox="0 0 600 96.7">
 <defs>
  <style type="text/css">
   
    .fil2 {fill:#189AC6}
    .fil0 {fill:#189AC6;fill-rule:nonzero}
    .fil1 {fill:#222222;fill-rule:nonzero}
   
  </style>
 </defs>
 <g id="Layer_x0020_1">
  <metadata id="CorelCorpID_0Corel-Layer"></metadata>
  <path class="fil0" d="M582.16 29.23l0 10.67 -7.32 0 0 6.39 7.32 0 0 27.04c0,3.27 0.87,5.7 2.61,7.28 1.74,1.59 4.48,2.38 8.22,2.38 1.04,0 2.14,-0.07 3.31,-0.2 1.17,-0.13 2.4,-0.3 3.7,-0.5l0 -6.94c-1.04,0.26 -1.97,0.43 -2.8,0.51 -0.84,0.08 -1.61,0.11 -2.34,0.11 -1.87,0 -3.2,-0.36 -3.98,-1.09 -0.78,-0.72 -1.16,-1.97 -1.16,-3.74l0 -24.85 10.28 0 0 -6.39 -10.28 0 0 -10.67 -7.56 0 0 0z"></path>
  <polygon class="fil0" points="566.81,34.45 566.81,25.26 559.25,25.26 559.25,34.45 566.81,34.45 "></polygon>
  <polygon class="fil0" points="566.81,39.9 559.25,39.9 559.25,81.82 566.81,81.82 "></polygon>
  <path class="fil0" d="M481.42 39.9l-7.56 0 0 41.92 7.56 0 0 -21.27c0,-2.34 0.39,-4.47 1.17,-6.39 0.78,-1.92 1.85,-3.56 3.23,-4.91 1.38,-1.35 3.01,-2.4 4.91,-3.15 1.89,-0.76 3.96,-1.13 6.19,-1.13 3.79,0 6.42,1.02 7.87,3.07 1.46,2.06 2.18,5.21 2.18,9.47l0 24.31 7.33 0 0 -21.27c0,-2.34 0.39,-4.47 1.16,-6.39 0.78,-1.92 1.86,-3.56 3.24,-4.91 1.37,-1.35 3.01,-2.4 4.91,-3.15 1.89,-0.76 3.96,-1.13 6.19,-1.13 3.79,0 6.42,1.02 7.87,3.07 1.45,2.06 2.18,5.21 2.18,9.47l0 24.31 7.56 0 0 -24c0,-2.96 -0.23,-5.62 -0.7,-7.98 -0.47,-2.37 -1.31,-4.39 -2.53,-6.08 -1.23,-1.69 -2.86,-2.97 -4.91,-3.86 -2.05,-0.88 -4.66,-1.32 -7.83,-1.32 -3.74,0 -7.03,0.76 -9.86,2.3 -2.83,1.53 -5.49,3.85 -7.98,6.97 -0.89,-2.86 -2.6,-5.12 -5.15,-6.78 -2.54,-1.66 -5.79,-2.49 -9.74,-2.49 -3.73,0 -7.01,0.76 -9.81,2.3 -2.81,1.53 -5.3,3.62 -7.48,6.27l0 -7.25z"></path>
  <path class="fil0" d="M396.65 39.9l-7.56 0 0 41.92 7.56 0 0 -21.27c0,-2.34 0.39,-4.47 1.17,-6.39 0.78,-1.92 1.86,-3.56 3.23,-4.91 1.38,-1.35 3.01,-2.4 4.91,-3.15 1.9,-0.76 3.96,-1.13 6.19,-1.13 3.8,0 6.42,1.02 7.87,3.07 1.46,2.06 2.18,5.21 2.18,9.47l0 24.31 7.33 0 0 -21.27c0,-2.34 0.39,-4.47 1.17,-6.39 0.78,-1.92 1.85,-3.56 3.23,-4.91 1.38,-1.35 3.01,-2.4 4.91,-3.15 1.9,-0.76 3.96,-1.13 6.19,-1.13 3.79,0 6.42,1.02 7.87,3.07 1.46,2.06 2.18,5.21 2.18,9.47l0 24.31 7.56 0 0 -24c0,-2.96 -0.23,-5.62 -0.7,-7.98 -0.47,-2.37 -1.31,-4.39 -2.53,-6.08 -1.22,-1.69 -2.86,-2.97 -4.91,-3.86 -2.05,-0.88 -4.66,-1.32 -7.83,-1.32 -3.74,0 -7.03,0.76 -9.86,2.3 -2.83,1.53 -5.49,3.85 -7.98,6.97 -0.89,-2.86 -2.6,-5.12 -5.14,-6.78 -2.55,-1.66 -5.8,-2.49 -9.74,-2.49 -3.74,0 -7.02,0.76 -9.82,2.3 -2.8,1.53 -5.3,3.62 -7.48,6.27l0 -7.25z"></path>
  <path class="fil0" d="M337.2 39.9l0 26.57c0,5.87 1.38,10.09 4.13,12.66 2.76,2.57 6.68,3.86 11.77,3.86 6.96,0 12.7,-2.76 17.21,-8.26l0 7.09 7.56 0 0 -41.92 -7.56 0 0 21.35c0,2.34 -0.39,4.45 -1.16,6.35 -0.78,1.9 -1.86,3.51 -3.24,4.83 -1.37,1.32 -3.01,2.35 -4.91,3.08 -1.89,0.72 -3.96,1.09 -6.19,1.09 -3.79,0 -6.41,-0.99 -7.87,-2.96 -1.45,-1.98 -2.18,-5.09 -2.18,-9.35l0 -24.39 -7.56 0 0 0z"></path>
  <path class="fil0" d="M327.39 52.52c0,-4.57 -1.61,-8.03 -4.83,-10.4 -3.22,-2.36 -7.98,-3.54 -14.26,-3.54 -6.29,0 -11,1.13 -14.14,3.39 -3.15,2.26 -4.72,5.57 -4.72,9.93 0,1.92 0.31,3.53 0.94,4.83 0.62,1.3 1.54,2.38 2.76,3.23 1.22,0.86 2.76,1.55 4.6,2.07 1.84,0.52 3.99,0.99 6.43,1.4l9.35 1.64c2.65,0.41 4.58,0.97 5.8,1.67 1.22,0.7 1.83,1.89 1.83,3.55 0,1.92 -1.1,3.45 -3.31,4.59 -2.21,1.15 -5.46,1.72 -9.78,1.72 -3.63,0 -6.5,-0.73 -8.61,-2.18 -2.1,-1.46 -3.33,-3.53 -3.7,-6.24l-8.25 0c0.46,5.2 2.37,8.96 5.72,11.3 3.35,2.34 8.3,3.51 14.84,3.51 6.91,0 12.08,-1.12 15.51,-3.35 3.43,-2.24 5.14,-5.48 5.14,-9.74 0,-1.87 -0.25,-3.48 -0.74,-4.83 -0.49,-1.35 -1.27,-2.48 -2.34,-3.39 -1.06,-0.91 -2.43,-1.65 -4.09,-2.22 -1.66,-0.57 -3.66,-1.07 -6,-1.48l-9.03 -1.48c-1.61,-0.26 -3.02,-0.53 -4.21,-0.82 -1.2,-0.29 -2.18,-0.64 -2.96,-1.05 -0.78,-0.42 -1.36,-0.94 -1.75,-1.56 -0.39,-0.62 -0.59,-1.45 -0.59,-2.49 0,-1.82 0.92,-3.21 2.77,-4.17 1.84,-0.96 4.56,-1.44 8.14,-1.44 3.79,0 6.7,0.59 8.72,1.79 2.03,1.19 3.17,3.12 3.43,5.76l7.33 0 0 0z"></path>
  <polygon class="fil1" points="278.54,25.26 265.45,25.26 265.45,81.82 278.54,81.82 "></polygon>
  <path class="fil1" d="M241.14 61.48l0 1.48c0,1.67 -0.35,3.2 -1.05,4.6 -0.7,1.4 -1.71,2.61 -3,3.62 -1.3,1.02 -2.87,1.81 -4.72,2.38 -1.84,0.57 -3.88,0.86 -6.11,0.86 -2.18,0 -3.91,-0.5 -5.18,-1.48 -1.28,-0.99 -1.91,-2.29 -1.91,-3.9 0,-0.99 0.24,-1.79 0.74,-2.41 0.49,-0.63 1.2,-1.12 2.14,-1.48 0.93,-0.37 2.1,-0.65 3.5,-0.86 1.41,-0.21 3.04,-0.42 4.91,-0.62 2.19,-0.26 4.17,-0.51 5.96,-0.74 1.8,-0.24 3.37,-0.72 4.72,-1.45l0 0zm-19.32 -7.87c0,-2.49 0.79,-4.29 2.37,-5.41 1.58,-1.12 3.99,-1.67 7.21,-1.67 6.49,0 9.74,1.58 9.74,4.75 0,1.19 -0.37,2.09 -1.09,2.69 -0.73,0.59 -1.8,1.05 -3.2,1.36 -1.4,0.31 -3.14,0.53 -5.22,0.66 -2.08,0.13 -4.47,0.3 -7.17,0.51 -3.37,0.26 -6.31,0.67 -8.8,1.24 -2.49,0.58 -4.57,1.36 -6.23,2.34 -1.66,0.99 -2.91,2.23 -3.74,3.74 -0.83,1.51 -1.25,3.35 -1.25,5.53 0,2.08 0.42,3.98 1.25,5.69 0.83,1.71 2.05,3.18 3.66,4.4 1.61,1.22 3.58,2.17 5.92,2.85 2.34,0.67 4.99,1.01 7.95,1.01 3.63,0 6.88,-0.47 9.74,-1.4 2.85,-0.94 5.48,-2.5 7.87,-4.68l0.62 4.6 14.41 0 0 -0.94c-0.78,-0.57 -1.3,-1.32 -1.56,-2.26 -0.25,-0.93 -0.39,-2.13 -0.39,-3.58l0 -20.96c0,-3.32 -0.59,-6.02 -1.79,-8.1 -1.19,-2.08 -2.79,-3.69 -4.79,-4.83 -2,-1.14 -4.31,-1.92 -6.93,-2.34 -2.63,-0.41 -5.36,-0.62 -8.22,-0.62 -7.9,0 -13.86,1.31 -17.88,3.93 -4.03,2.63 -6.04,6.46 -6.04,11.49l13.56 0 0 0z"></path>
  <path class="fil1" d="M176.63 28.45l0 11.22 -6.16 0 0 10.05 6.16 0 0 23.37c0,3.79 1.13,6.44 3.39,7.95 2.26,1.5 5.8,2.26 10.63,2.26l8.88 0 0 -10.05 -5.37 0c-1.09,0 -1.94,-0.08 -2.54,-0.24 -0.59,-0.15 -1.03,-0.44 -1.32,-0.85 -0.29,-0.42 -0.45,-1 -0.51,-1.76 -0.05,-0.75 -0.07,-1.75 -0.07,-3l0 -17.68 9.81 0 0 -10.05 -9.81 0 0 -11.22 -13.09 0 0 0z"></path>
  <polygon class="fil1" points="161.9,39.67 148.81,39.67 148.81,81.82 161.9,81.82 "></polygon>
  <path class="fil1" d="M124.35 59.23c0,3.42 -1.11,6.16 -3.31,8.21 -2.21,2.06 -5.24,3.08 -9.08,3.08 -3.79,0 -6.8,-1.01 -9.04,-3.04 -2.23,-2.02 -3.35,-4.78 -3.35,-8.25 0,-3.43 1.12,-6.21 3.35,-8.34 2.24,-2.13 5.25,-3.2 9.04,-3.2 3.84,0 6.87,1.07 9.08,3.2 2.2,2.13 3.31,4.91 3.31,8.34l0 0zm0 -19.56l0 3.74c-3.64,-3.48 -8.6,-5.22 -14.88,-5.22 -3.59,0 -6.86,0.53 -9.82,1.6 -2.96,1.06 -5.49,2.53 -7.6,4.4 -2.1,1.87 -3.74,4.09 -4.91,6.66 -1.16,2.57 -1.75,5.36 -1.75,8.38 0,3.11 0.59,5.94 1.75,8.49 1.17,2.54 2.82,4.72 4.95,6.54 2.13,1.82 4.69,3.23 7.68,4.25 2.98,1.01 6.29,1.52 9.93,1.52 3.12,0 5.88,-0.41 8.3,-1.21 2.41,-0.81 4.53,-2.12 6.35,-3.94l0 2.89c0,1.82 -0.22,3.33 -0.66,4.55 -0.45,1.23 -1.17,2.21 -2.19,2.97 -1.01,0.75 -2.32,1.28 -3.93,1.59 -1.61,0.31 -3.58,0.47 -5.92,0.47 -6.34,0 -9.51,-1.77 -9.51,-5.3l-13.01 0c0,5.04 1.87,8.74 5.61,11.1 3.74,2.37 9.35,3.55 16.83,3.55 4,0 7.6,-0.38 10.79,-1.13 3.19,-0.75 5.91,-1.92 8.14,-3.51 2.24,-1.58 3.95,-3.57 5.14,-5.96 1.2,-2.39 1.8,-5.22 1.8,-8.49l0 -37.94 -13.09 0 0 0z"></path>
  <polygon class="fil1" points="76.51,39.67 63.42,39.67 63.42,81.82 76.51,81.82 "></polygon>
  <path class="fil1" d="M38.96 61.09c0,3.69 -1.12,6.63 -3.35,8.81 -2.24,2.18 -5.25,3.27 -9.04,3.27 -3.74,0 -6.74,-1.06 -9,-3.19 -2.26,-2.13 -3.39,-5.07 -3.39,-8.81 0,-3.74 1.12,-6.68 3.35,-8.84 2.23,-2.16 5.25,-3.23 9.04,-3.23 3.79,0 6.8,1.09 9.04,3.27 2.23,2.18 3.35,5.09 3.35,8.72l0 0zm0 -35.83l0 19.24c-1.67,-1.77 -3.7,-3.12 -6.12,-4.05 -2.42,-0.94 -5.29,-1.4 -8.61,-1.4 -3.58,0 -6.86,0.53 -9.82,1.59 -2.96,1.07 -5.52,2.56 -7.67,4.48 -2.16,1.93 -3.82,4.25 -4.99,6.98 -1.17,2.72 -1.75,5.72 -1.75,8.99 0,3.28 0.58,6.26 1.75,8.96 1.17,2.7 2.81,5.03 4.91,6.98 2.1,1.94 4.64,3.46 7.6,4.55 2.96,1.1 6.2,1.64 9.74,1.64 3.27,0 6.13,-0.43 8.57,-1.28 2.44,-0.86 4.57,-2.2 6.39,-4.02l0 3.9 13.09 0 0 -56.56 -13.09 0 0 0z"></path>
  <path class="fil2" d="M64.98 23.88l9.97 0c0.84,0 1.53,0.69 1.53,1.52l0 7.11c0,0.84 -0.69,1.52 -1.53,1.52l-9.97 0c-0.84,0 -1.53,-0.68 -1.53,-1.52l0 -7.11c0,-0.83 0.69,-1.52 1.53,-1.52l0 0z"></path>
  <path class="fil2" d="M150.37 23.88l9.98 0c0.83,0 1.52,0.69 1.52,1.52l0 7.11c0,0.84 -0.69,1.52 -1.52,1.52l-9.98 0c-0.84,0 -1.53,-0.68 -1.53,-1.52l0 -7.11c0,-0.83 0.69,-1.52 1.53,-1.52l0 0z"></path>
  <path class="fil2" d="M84.44 10.85l7.52 0c0.63,0 1.15,0.51 1.15,1.15l0 5.35c0,0.63 -0.52,1.15 -1.15,1.15l-7.52 0c-0.64,0 -1.15,-0.52 -1.15,-1.15l0 -5.35c0,-0.64 0.51,-1.15 1.15,-1.15l0 0z"></path>
  <path class="fil2" d="M133.36 10.85l7.53 0c0.63,0 1.14,0.51 1.14,1.15l0 5.35c0,0.63 -0.51,1.15 -1.14,1.15l-7.53 0c-0.63,0 -1.14,-0.52 -1.14,-1.15l0 -5.35c0,-0.64 0.51,-1.15 1.14,-1.15l0 0z"></path>
  <path class="fil2" d="M109.97 0l5.38 0c0.45,0 0.82,0.37 0.82,0.82l0 3.83c0,0.45 -0.37,0.82 -0.82,0.82l-5.38 0c-0.45,0 -0.82,-0.37 -0.82,-0.82l0 -3.83c0,-0.45 0.37,-0.82 0.82,-0.82l0 0z"></path>
 </g>
</svg>
