<?xml version="1.0" encoding="UTF-8"?>
<svg xmlns:xodm="http://www.corel.com/coreldraw/odm/2003" xmlns="http://www.w3.org/2000/svg" xmlns:xlink="http://www.w3.org/1999/xlink" version="1.1" id="Layer_1" x="0px" y="0px" viewBox="0 0 600 97" style="enable-background:new 0 0 600 97;" xml:space="preserve">
<style type="text/css">
	.st0{fill:#189AC6;}
	.st1{fill:#FFFFFF;}
	.st2{fill-rule:evenodd;clip-rule:evenodd;fill:#189AC6;}
</style>
<g>
	<path class="st0" d="M582.2,29.4v10.7h-7.3v6.4h7.3v27c0,3.3,0.9,5.7,2.6,7.3c1.7,1.6,4.5,2.4,8.2,2.4c1,0,2.1-0.1,3.3-0.2   s2.4-0.3,3.7-0.5v-6.9c-1,0.3-2,0.4-2.8,0.5c-0.8,0.1-1.6,0.1-2.3,0.1c-1.9,0-3.2-0.4-4-1.1c-0.8-0.7-1.2-2-1.2-3.7V46.4H600v-6.4   h-10.3V29.4L582.2,29.4C582.2,29.4,582.2,29.4,582.2,29.4z"></path>
	<polygon class="st0" points="566.8,34.6 566.8,25.4 559.2,25.4 559.2,34.6  "></polygon>
	<polygon class="st0" points="566.8,40.1 559.2,40.1 559.2,82 566.8,82  "></polygon>
	<path class="st0" d="M481.4,40.1h-7.6V82h7.6V60.7c0-2.3,0.4-4.5,1.2-6.4s1.9-3.6,3.2-4.9s3-2.4,4.9-3.2c1.9-0.8,4-1.1,6.2-1.1   c3.8,0,6.4,1,7.9,3.1c1.5,2.1,2.2,5.2,2.2,9.5V82h7.3V60.7c0-2.3,0.4-4.5,1.2-6.4c0.8-1.9,1.9-3.6,3.2-4.9c1.4-1.3,3-2.4,4.9-3.2   c1.9-0.8,4-1.1,6.2-1.1c3.8,0,6.4,1,7.9,3.1c1.5,2.1,2.2,5.2,2.2,9.5V82h7.6V58c0-3-0.2-5.6-0.7-8c-0.5-2.4-1.3-4.4-2.5-6.1   c-1.2-1.7-2.9-3-4.9-3.9c-2-0.9-4.7-1.3-7.8-1.3c-3.7,0-7,0.8-9.9,2.3c-2.8,1.5-5.5,3.8-8,7c-0.9-2.9-2.6-5.1-5.1-6.8   c-2.5-1.7-5.8-2.5-9.7-2.5c-3.7,0-7,0.8-9.8,2.3c-2.8,1.5-5.3,3.6-7.5,6.3L481.4,40.1L481.4,40.1z"></path>
	<path class="st0" d="M396.6,40.1h-7.6V82h7.6V60.7c0-2.3,0.4-4.5,1.2-6.4s1.9-3.6,3.2-4.9c1.4-1.3,3-2.4,4.9-3.2   c1.9-0.8,4-1.1,6.2-1.1c3.8,0,6.4,1,7.9,3.1c1.5,2.1,2.2,5.2,2.2,9.5V82h7.3V60.7c0-2.3,0.4-4.5,1.2-6.4s1.9-3.6,3.2-4.9   s3-2.4,4.9-3.2c1.9-0.8,4-1.1,6.2-1.1c3.8,0,6.4,1,7.9,3.1c1.5,2.1,2.2,5.2,2.2,9.5V82h7.6V58c0-3-0.2-5.6-0.7-8   c-0.5-2.4-1.3-4.4-2.5-6.1s-2.9-3-4.9-3.9c-2-0.9-4.7-1.3-7.8-1.3c-3.7,0-7,0.8-9.9,2.3c-2.8,1.5-5.5,3.8-8,7   c-0.9-2.9-2.6-5.1-5.1-6.8c-2.5-1.7-5.8-2.5-9.7-2.5c-3.7,0-7,0.8-9.8,2.3c-2.8,1.5-5.3,3.6-7.5,6.3V40.1z"></path>
	<path class="st0" d="M337.2,40.1v26.6c0,5.9,1.4,10.1,4.1,12.7c2.8,2.6,6.7,3.9,11.8,3.9c7,0,12.7-2.8,17.2-8.3V82h7.6V40.1h-7.6   v21.3c0,2.3-0.4,4.4-1.2,6.3c-0.8,1.9-1.9,3.5-3.2,4.8c-1.4,1.3-3,2.3-4.9,3.1c-1.9,0.7-4,1.1-6.2,1.1c-3.8,0-6.4-1-7.9-3   c-1.5-2-2.2-5.1-2.2-9.3V40.1L337.2,40.1C337.2,40.1,337.2,40.1,337.2,40.1z"></path>
	<path class="st0" d="M327.4,52.7c0-4.6-1.6-8-4.8-10.4c-3.2-2.4-8-3.5-14.3-3.5c-6.3,0-11,1.1-14.1,3.4c-3.1,2.3-4.7,5.6-4.7,9.9   c0,1.9,0.3,3.5,0.9,4.8c0.6,1.3,1.5,2.4,2.8,3.2c1.2,0.9,2.8,1.5,4.6,2.1s4,1,6.4,1.4l9.4,1.6c2.6,0.4,4.6,1,5.8,1.7   s1.8,1.9,1.8,3.6c0,1.9-1.1,3.4-3.3,4.6c-2.2,1.2-5.5,1.7-9.8,1.7c-3.6,0-6.5-0.7-8.6-2.2c-2.1-1.5-3.3-3.5-3.7-6.2h-8.2   c0.5,5.2,2.4,9,5.7,11.3c3.4,2.3,8.3,3.5,14.8,3.5c6.9,0,12.1-1.1,15.5-3.3c3.4-2.2,5.1-5.5,5.1-9.7c0-1.9-0.2-3.5-0.7-4.8   s-1.3-2.5-2.3-3.4c-1.1-0.9-2.4-1.7-4.1-2.2s-3.7-1.1-6-1.5l-9-1.5c-1.6-0.3-3-0.5-4.2-0.8c-1.2-0.3-2.2-0.6-3-1   c-0.8-0.4-1.4-0.9-1.8-1.6c-0.4-0.6-0.6-1.5-0.6-2.5c0-1.8,0.9-3.2,2.8-4.2c1.8-1,4.6-1.4,8.1-1.4c3.8,0,6.7,0.6,8.7,1.8   c2,1.2,3.2,3.1,3.4,5.8L327.4,52.7L327.4,52.7L327.4,52.7z"></path>
	<polygon class="st1" points="278.5,25.4 265.5,25.4 265.5,82 278.5,82  "></polygon>
	<path class="st1" d="M241.1,61.6v1.5c0,1.7-0.4,3.2-1.1,4.6s-1.7,2.6-3,3.6c-1.3,1-2.9,1.8-4.7,2.4c-1.8,0.6-3.9,0.9-6.1,0.9   c-2.2,0-3.9-0.5-5.2-1.5c-1.3-1-1.9-2.3-1.9-3.9c0-1,0.2-1.8,0.7-2.4c0.5-0.6,1.2-1.1,2.1-1.5c0.9-0.4,2.1-0.7,3.5-0.9   c1.4-0.2,3-0.4,4.9-0.6c2.2-0.3,4.2-0.5,6-0.7C238.2,62.8,239.8,62.4,241.1,61.6L241.1,61.6L241.1,61.6z M221.8,53.8   c0-2.5,0.8-4.3,2.4-5.4s4-1.7,7.2-1.7c6.5,0,9.7,1.6,9.7,4.8c0,1.2-0.4,2.1-1.1,2.7c-0.7,0.6-1.8,1-3.2,1.4s-3.1,0.5-5.2,0.7   s-4.5,0.3-7.2,0.5c-3.4,0.3-6.3,0.7-8.8,1.2c-2.5,0.6-4.6,1.4-6.2,2.3c-1.7,1-2.9,2.2-3.7,3.7c-0.8,1.5-1.2,3.4-1.2,5.5   c0,2.1,0.4,4,1.2,5.7s2.1,3.2,3.7,4.4s3.6,2.2,5.9,2.8c2.3,0.7,5,1,7.9,1c3.6,0,6.9-0.5,9.7-1.4c2.9-0.9,5.5-2.5,7.9-4.7l0.6,4.6   h14.4V81c-0.8-0.6-1.3-1.3-1.6-2.3c-0.2-0.9-0.4-2.1-0.4-3.6v-21c0-3.3-0.6-6-1.8-8.1c-1.2-2.1-2.8-3.7-4.8-4.8   c-2-1.1-4.3-1.9-6.9-2.3c-2.6-0.4-5.4-0.6-8.2-0.6c-7.9,0-13.9,1.3-17.9,3.9c-4,2.6-6,6.5-6,11.5H221.8L221.8,53.8L221.8,53.8z"></path>
	<path class="st1" d="M176.6,28.6v11.2h-6.2v10h6.2v23.4c0,3.8,1.1,6.4,3.4,7.9c2.3,1.5,5.8,2.3,10.6,2.3h8.9V73.4h-5.4   c-1.1,0-1.9-0.1-2.5-0.2c-0.6-0.2-1-0.4-1.3-0.8c-0.3-0.4-0.4-1-0.5-1.8c-0.1-0.8-0.1-1.8-0.1-3V49.9h9.8v-10h-9.8V28.6H176.6   L176.6,28.6L176.6,28.6z"></path>
	<polygon class="st1" points="161.9,39.8 148.8,39.8 148.8,82 161.9,82  "></polygon>
	<path class="st1" d="M124.3,59.4c0,3.4-1.1,6.2-3.3,8.2c-2.2,2.1-5.2,3.1-9.1,3.1c-3.8,0-6.8-1-9-3c-2.2-2-3.3-4.8-3.3-8.2   c0-3.4,1.1-6.2,3.3-8.3c2.2-2.1,5.2-3.2,9-3.2c3.8,0,6.9,1.1,9.1,3.2C123.2,53.2,124.3,56,124.3,59.4   C124.3,59.4,124.3,59.4,124.3,59.4z M124.3,39.8v3.7c-3.6-3.5-8.6-5.2-14.9-5.2c-3.6,0-6.9,0.5-9.8,1.6c-3,1.1-5.5,2.5-7.6,4.4   c-2.1,1.9-3.7,4.1-4.9,6.7c-1.2,2.6-1.8,5.4-1.8,8.4c0,3.1,0.6,5.9,1.8,8.5c1.2,2.5,2.8,4.7,4.9,6.5s4.7,3.2,7.7,4.2   c3,1,6.3,1.5,9.9,1.5c3.1,0,5.9-0.4,8.3-1.2c2.4-0.8,4.5-2.1,6.3-3.9v2.9c0,1.8-0.2,3.3-0.7,4.6c-0.4,1.2-1.2,2.2-2.2,3   c-1,0.8-2.3,1.3-3.9,1.6s-3.6,0.5-5.9,0.5c-6.3,0-9.5-1.8-9.5-5.3h-13c0,5,1.9,8.7,5.6,11.1c3.7,2.4,9.3,3.6,16.8,3.6   c4,0,7.6-0.4,10.8-1.1s5.9-1.9,8.1-3.5c2.2-1.6,3.9-3.6,5.1-6c1.2-2.4,1.8-5.2,1.8-8.5V39.8L124.3,39.8   C124.4,39.8,124.4,39.8,124.3,39.8z"></path>
	<polygon class="st1" points="76.5,39.8 63.4,39.8 63.4,82 76.5,82  "></polygon>
	<path class="st1" d="M39,61.2c0,3.7-1.1,6.6-3.3,8.8c-2.2,2.2-5.2,3.3-9,3.3c-3.7,0-6.7-1.1-9-3.2c-2.3-2.1-3.4-5.1-3.4-8.8   s1.1-6.7,3.3-8.8s5.2-3.2,9-3.2s6.8,1.1,9,3.3C37.8,54.7,39,57.6,39,61.2C39,61.2,39,61.2,39,61.2z M39,25.4v19.2   c-1.7-1.8-3.7-3.1-6.1-4c-2.4-0.9-5.3-1.4-8.6-1.4c-3.6,0-6.9,0.5-9.8,1.6c-3,1.1-5.5,2.6-7.7,4.5c-2.2,1.9-3.8,4.2-5,7   C0.6,55,0,58,0,61.2c0,3.3,0.6,6.3,1.8,9s2.8,5,4.9,7c2.1,1.9,4.6,3.5,7.6,4.6c3,1.1,6.2,1.6,9.7,1.6c3.3,0,6.1-0.4,8.6-1.3   c2.4-0.9,4.6-2.2,6.4-4V82H52V25.4L39,25.4C39,25.4,39,25.4,39,25.4z"></path>
	<path class="st2" d="M65,24h10c0.8,0,1.5,0.7,1.5,1.5v7.1c0,0.8-0.7,1.5-1.5,1.5H65c-0.8,0-1.5-0.7-1.5-1.5v-7.1   C63.5,24.7,64.1,24,65,24C65,24,65,24,65,24z"></path>
	<path class="st2" d="M150.4,24h10c0.8,0,1.5,0.7,1.5,1.5v7.1c0,0.8-0.7,1.5-1.5,1.5h-10c-0.8,0-1.5-0.7-1.5-1.5v-7.1   C148.8,24.7,149.5,24,150.4,24C150.4,24,150.4,24,150.4,24z"></path>
	<path class="st2" d="M84.4,11H92c0.6,0,1.2,0.5,1.2,1.1v5.4c0,0.6-0.5,1.1-1.2,1.1h-7.5c-0.6,0-1.2-0.5-1.2-1.1v-5.4   C83.3,11.5,83.8,11,84.4,11L84.4,11z"></path>
	<path class="st2" d="M133.4,11h7.5c0.6,0,1.1,0.5,1.1,1.1v5.4c0,0.6-0.5,1.1-1.1,1.1h-7.5c-0.6,0-1.1-0.5-1.1-1.1v-5.4   C132.2,11.5,132.7,11,133.4,11L133.4,11z"></path>
	<path class="st2" d="M110,0.2h5.4c0.4,0,0.8,0.4,0.8,0.8v3.8c0,0.4-0.4,0.8-0.8,0.8H110c-0.4,0-0.8-0.4-0.8-0.8V1   C109.2,0.5,109.5,0.2,110,0.2C110,0.2,110,0.2,110,0.2z"></path>
</g>
</svg>
